# xmcd
#
# Track frame offsets:
# 150
# 16362
# 23775
# 31152
# 42972
# 81540
# 91470
# 103627
# 115967
# 124405
# 135627
# 158707
# 164490
# 167255
# 181962
# 184867
# 192697
# 213792
# 225852
# 239450
# 268170
# 273902
# 288975
#
# Disc length: 4117 seconds
#
# Revision: 0
# Processed by: cddbd v1.4PL0 Copyright (c) Steve Scherf et al.
# Submitted via: Audion 3.0.2 (http://www.panic.com/audion/)
#
DISCID=3e101317
DTITLE=Barron's - Mastering Italian Disc 11
DYEAR=1900
DGENRE=
TTITLE0=Unit XXIV - Frames 1-7
TTITLE1=Unit XXIV - Frames 8-24
TTITLE2=Unit XXIV - Frames 25-39
TTITLE3=Unit XXIV - Frames 40-53
TTITLE4=Unit XXIV - Frames 54-59
TTITLE5=Unit XXIV - Frames 60-62
TTITLE6=Unit XXIV - Frames 63-64
TTITLE7=Test A
TTITLE8=Test B
TTITLE9=Test C
TTITLE10=Test D
TTITLE11=Unit XXV - Frames 1-13
TTITLE12=Unit XXV - Frames 14-21
TTITLE13=Unit XXV - Frames 22-32
TTITLE14=Unit XXV - Frames 33-36
TTITLE15=Unit XXV - Frames 37-51
TTITLE16=Unit XXV - Frames 52-65
TTITLE17=Unit XXV - Frames 66-72
TTITLE18=Unit XXV - Frames 73
TTITLE19=Test A
TTITLE20=Test B
TTITLE21=Test C
TTITLE22=Test D
EXTD=
EXTT0=
EXTT1=
EXTT2=
EXTT3=
EXTT4=
EXTT5=
EXTT6=
EXTT7=
EXTT8=
EXTT9=
EXTT10=
EXTT11=
EXTT12=
EXTT13=
EXTT14=
EXTT15=
EXTT16=
EXTT17=
EXTT18=
EXTT19=
EXTT20=
EXTT21=
EXTT22=
PLAYORDER=
